<svg width="107" height="107" viewBox="0 0 107 107" fill="none" xmlns="http://www.w3.org/2000/svg">
<path d="M94.6833 41.8986C85.8775 41.8986 76.5398 44.2749 68.9442 46.8758C76.2223 43.2639 84.5816 38.278 90.6667 32.1515C95.1725 27.615 95.1725 20.2528 90.6667 15.7077C86.1608 11.1625 78.8484 11.1712 74.3339 15.7077C68.1115 21.9724 63.1766 30.3024 59.632 37.5522C62.2497 29.8185 64.6529 20.348 64.6529 11.6724C64.6529 5.25213 59.486 0.050293 53.1091 0.050293C46.7323 0.050293 41.5656 5.25213 41.5656 11.6724C41.5656 20.5381 43.9258 29.9395 46.5092 37.5868C42.9216 30.2592 37.9694 21.8428 31.8843 15.7163C27.3785 11.1798 20.066 11.1798 15.5516 15.7163C11.0371 20.2529 11.0457 27.615 15.5516 32.1602C21.774 38.4249 30.0477 43.3936 37.2485 46.9623C29.567 44.3268 20.1605 41.9073 11.5436 41.9073C5.16669 41.9073 0 47.1091 0 53.5294C0 59.9496 5.16669 65.1517 11.5436 65.1517C20.3493 65.1517 29.6872 62.7754 37.2828 60.1745C30.0048 63.7864 21.6453 68.7721 15.5602 74.8985C11.0543 79.4351 11.0543 86.7972 15.5602 91.3424C20.0661 95.8876 27.3785 95.8789 31.8929 91.3424C38.1153 85.0777 43.0504 76.7477 46.5951 69.4979C43.9774 77.2316 41.5741 86.7023 41.5741 95.3779C41.5741 101.798 46.7408 107 53.1177 107C59.4946 107 64.6615 101.798 64.6615 95.3779C64.6615 86.5122 62.3013 77.1108 59.7179 69.4635C63.3055 76.7911 68.2574 85.2073 74.3425 91.3337C78.8484 95.8703 86.1608 95.8703 90.6753 91.3337C95.1897 86.7972 95.1811 79.4353 90.6753 74.8901C84.4529 68.6254 76.1792 63.6567 68.9784 60.088C76.6598 62.7235 86.0663 65.143 94.6833 65.143C101.06 65.143 106.227 59.941 106.227 53.5207C106.227 47.1004 101.06 41.8986 94.6833 41.8986Z" fill="white"/>
</svg>
