<svg width="1287" height="177" viewBox="0 0 1287 177" fill="none" xmlns="http://www.w3.org/2000/svg">
<path opacity="0.5" d="M0.561176 174C0.561176 175.347 1.65307 176.439 3 176.439C4.34693 176.439 5.43882 175.347 5.43882 174C5.43882 172.653 4.34693 171.561 3 171.561C1.65307 171.561 0.561176 172.653 0.561176 174ZM1281.56 3C1281.56 4.34693 1282.65 5.43882 1284 5.43882C1285.35 5.43882 1286.44 4.34693 1286.44 3C1286.44 1.65307 1285.35 0.561176 1284 0.561176C1282.65 0.561176 1281.56 1.65307 1281.56 3ZM3 174V174.457H548.508V174V173.543H3V174ZM571.372 151.136H571.829V25.864H571.372H570.914V151.136H571.372ZM594.236 3V3.45728H1284V3V2.54272H594.236V3ZM571.372 25.864H571.829C571.829 13.4891 581.861 3.45728 594.236 3.45728V3V2.54272C581.356 2.54272 570.914 12.984 570.914 25.864H571.372ZM548.508 174V174.457C561.388 174.457 571.829 164.016 571.829 151.136H571.372H570.914C570.914 163.511 560.883 173.543 548.508 173.543V174Z" fill="white"/>
</svg>
